<?xml version="1.0" encoding="utf-8"?>
<!-- Svg Vector Icons : http://www.onlinewebfonts.com/icon -->
<!DOCTYPE svg PUBLIC "-//W3C//DTD SVG 1.1//EN" "http://www.w3.org/Graphics/SVG/1.1/DTD/svg11.dtd">
<svg version="1.1" xmlns="http://www.w3.org/2000/svg" xmlns:xlink="http://www.w3.org/1999/xlink" x="0px" y="0px" viewBox="0 0 1000 1000" enable-background="new 0 0 1000 1000" xml:space="preserve">
<metadata> Svg Vector Icons : http://www.onlinewebfonts.com/icon </metadata>
<g><g><path d="M500,10C229.8,10,10,229.8,10,500c0,101.8,31.2,196.4,84.5,274.8v1.4h1C183.8,905.2,332.2,990,500,990c270.2,0,490-219.9,490-490S770.2,10,500,10z M520.1,233.6V50.7c48,2.1,94.1,11.8,137.1,27.9c11.2,20.3,36.9,72.4,58.1,155H520.1z M724.8,273.8c12.5,59.5,21.7,131.8,22.6,216.1H520.1V273.8H724.8z M479.9,233.6h-186c22.9-88.9,50.9-142.6,60.4-159.1c39.7-13.6,81.8-21.9,125.6-23.8V233.6z M479.9,273.8v216.1h-218c0.9-84.3,10.1-156.7,22.6-216.1H479.9z M221.7,489.9H50.4c1.7-78.6,23.7-152.3,61-216.1h131.8C231.1,334,222.5,406.1,221.7,489.9z M222,530.2c1.7,79.9,10.3,148.7,22.2,205.8H117.3c-37.5-60.6-60.9-130.7-65.9-205.8H222z M262.2,530.2h217.6v205.8H285.7C273.4,679.6,264,610.8,262.2,530.2z M479.9,776.1v173.2c-43.8-2-86-10.3-125.8-23.9c-9.2-15.5-36.1-65.5-58.6-149.3H479.9z M520.1,776.1h193.6c-20.8,77.5-45.4,126.1-56.2,145.2c-43.1,16.2-89.2,25.9-137.4,28V776.1z M520.1,735.9V530.2H747c-1.8,80.7-11.2,149.4-23.5,205.8H520.1z M787.2,530.2h161.4c-5,75.1-28.4,145.2-65.9,205.8H765C776.9,678.8,785.5,610.1,787.2,530.2z M787.5,489.9c-0.8-83.8-9.4-155.9-21.5-216.1h122.5c37.3,63.8,59.2,137.5,61,216.1H787.5z M862.2,233.6h-105c-13.4-55.1-29.1-97.9-42.4-128.7C772.8,136.6,823.1,180.7,862.2,233.6z M297.1,98.7c-13.9,31.1-30.7,76.1-45.1,134.9H137.8C179.5,177.1,234.1,130.7,297.1,98.7z M145.3,776.1h108.1c13.8,54,29.6,95.4,42.8,124.7C237.3,870.7,185.8,828,145.3,776.1z M715.7,894.6c12.7-28.9,27.3-68.1,40.1-118.5h98.9C817,824.5,769.7,864.9,715.7,894.6z"/></g><g></g><g></g><g></g><g></g><g></g><g></g><g></g><g></g><g></g><g></g><g></g><g></g><g></g><g></g><g></g></g>
</svg>