<?xml version="1.0" encoding="UTF-8" standalone="no"?>
<svg
   width="249.99998"
   height="166.66666"
   viewBox="0 0 8.3333328 5.5555552"
   version="1.1"
   id="svg17"
   sodipodi:docname="Flag_of_the_People's_Republic_of_China.svg"
   inkscape:version="1.1.1 (3bf5ae0d25, 2021-09-20)"
   xmlns:inkscape="http://www.inkscape.org/namespaces/inkscape"
   xmlns:sodipodi="http://sodipodi.sourceforge.net/DTD/sodipodi-0.dtd"
   xmlns:xlink="http://www.w3.org/1999/xlink"
   xmlns="http://www.w3.org/2000/svg"
   xmlns:svg="http://www.w3.org/2000/svg">
  <sodipodi:namedview
     id="namedview19"
     pagecolor="#ffffff"
     bordercolor="#666666"
     borderopacity="1.0"
     inkscape:pageshadow="2"
     inkscape:pageopacity="0.0"
     inkscape:pagecheckerboard="0"
     showgrid="false"
     inkscape:zoom="1.6452018"
     inkscape:cx="94.213367"
     inkscape:cy="71.115897"
     inkscape:window-width="1920"
     inkscape:window-height="986"
     inkscape:window-x="-11"
     inkscape:window-y="-11"
     inkscape:window-maximized="1"
     inkscape:current-layer="svg17" />
  <defs
     id="defs3">
    <path
       id="s"
       d="M 0,-1 0.587785,0.809017 -0.951057,-0.309017 H 0.951057 L -0.587785,0.809017 Z"
       fill="#ffff00" />
  </defs>
  <rect
     width="8.3333502"
     height="5.5555668"
     fill="#ee1c25"
     id="rect5"
     x="0"
     y="0"
     style="stroke-width:0.277779" />
  <use
     xlink:href="#s"
     transform="matrix(0.83333503,0,0,0.83333503,4.7116857,1.3078479)"
     id="use7"
     x="0"
     y="0"
     width="100%"
     height="100%" />
  <use
     xlink:href="#s"
     transform="matrix(0.25562761,0.10869837,-0.10869837,0.25562761,6.1005775,0.47451293)"
     id="use9"
     x="0"
     y="0"
     width="100%"
     height="100%" />
  <use
     xlink:href="#s"
     transform="matrix(0.19341428,0.19937835,-0.19937835,0.19341428,6.6561341,1.0300696)"
     id="use11"
     x="0"
     y="0"
     width="100%"
     height="100%" />
  <use
     xlink:href="#s"
     transform="matrix(0.0952545,0.2609356,-0.2609356,0.0952545,6.6561341,1.8634046)"
     id="use13"
     x="0"
     y="0"
     width="100%"
     height="100%" />
  <use
     xlink:href="#s"
     transform="matrix(0.25991491,0.09800536,-0.09800536,0.25991491,6.1005775,2.4189613)"
     id="use15"
     x="0"
     y="0"
     width="100%"
     height="100%" />
</svg>
